HIERARCHY
ROOT Hips
{
	OFFSET 0.000000 83.214638 0.000000
	CHANNELS 6 Xposition Yposition Zposition Xrotation Yrotation Zrotation
	JOINT Pelvis
	{
		OFFSET 0.000000 0.000000 0.000000
		CHANNELS 3 Xrotation Yrotation Zrotation
		JOINT LeftUpLeg
		{
			OFFSET 8.479700 -4.795502 -0.379100
			CHANNELS 3 Xrotation Yrotation Zrotation
			JOINT LeftLeg
			{
				OFFSET 0.024144 -32.555107 0.112900
				CHANNELS 3 Xrotation Yrotation Zrotation
				JOINT LeftFoot
				{
					OFFSET -0.024144 -32.638630 -3.012600
					CHANNELS 3 Xrotation Yrotation Zrotation
					JOINT LeftToeBase
					{
						OFFSET 0.970200 -13.225400 11.864200
						CHANNELS 3 Xrotation Yrotation Zrotation
						End Site
						{
							OFFSET 0.000000 12.319262 0.000000
						}
					}
					JOINT LFootTongue
					{
						OFFSET 1.142400 -1.059800 6.665200
						CHANNELS 3 Xrotation Yrotation Zrotation
						End Site
						{
							OFFSET 0.000000 12.319262 0.000000
						}
					}
				}
				JOINT LeftPantLeg
				{
					OFFSET 0.918482 -16.533964 -2.284700
					CHANNELS 3 Xrotation Yrotation Zrotation
					End Site
					{
						OFFSET 0.350399 24.744368 0.000000
					}
				}
			}
		}
		JOINT RightUpLeg
		{
			OFFSET -8.479700 -4.795502 -0.379100
			CHANNELS 3 Xrotation Yrotation Zrotation
			JOINT RightLeg
			{
				OFFSET -0.023144 -32.555092 0.112900
				CHANNELS 3 Xrotation Yrotation Zrotation
				JOINT RightFoot
				{
					OFFSET 0.023144 -32.638641 -3.012700
					CHANNELS 3 Xrotation Yrotation Zrotation
					JOINT RightToeBase
					{
						OFFSET -0.970200 -13.225400 11.864200
						CHANNELS 3 Xrotation Yrotation Zrotation
						End Site
						{
							OFFSET 0.000000 12.319244 0.000000
						}
					}
					JOINT RFootTongue
					{
						OFFSET -1.142200 -1.059800 6.665200
						CHANNELS 3 Xrotation Yrotation Zrotation
						End Site
						{
							OFFSET 0.000000 12.319243 0.000000
						}
					}
				}
				JOINT RightPantLeg
				{
					OFFSET -0.919482 -16.533978 -2.284800
					CHANNELS 3 Xrotation Yrotation Zrotation
					End Site
					{
						OFFSET -0.350400 24.744419 0.000000
					}
				}
			}
		}
	}
	JOINT Spine
	{
		OFFSET 0.000000 7.722000 1.166200
		CHANNELS 3 Xrotation Yrotation Zrotation
		JOINT Spine1
		{
			OFFSET 0.000000 12.024101 0.248800
			CHANNELS 3 Xrotation Yrotation Zrotation
			JOINT Spine2
			{
				OFFSET 0.000000 11.502998 -0.491200
				CHANNELS 3 Xrotation Yrotation Zrotation
				JOINT Neck
				{
					OFFSET 0.000000 18.430702 -3.123100
					CHANNELS 3 Xrotation Yrotation Zrotation
					JOINT Head
					{
						OFFSET 0.000000 9.051102 1.034000
						CHANNELS 3 Xrotation Yrotation Zrotation
						JOINT HairB
						{
							OFFSET 0.208400 24.786102 24.822300
							CHANNELS 3 Xrotation Yrotation Zrotation
							End Site
							{
								OFFSET 0.000000 32.263779 0.000000
							}
						}
						JOINT HairA
						{
							OFFSET -7.081100 24.428299 23.196600
							CHANNELS 3 Xrotation Yrotation Zrotation
							End Site
							{
								OFFSET 0.000000 32.263779 0.000000
							}
						}
						JOINT Hat
						{
							OFFSET 16.728800 15.048294 -15.439601
							CHANNELS 3 Xrotation Yrotation Zrotation
							End Site
							{
								OFFSET 0.000000 32.263779 0.000000
							}
						}
					}
				}
				JOINT LeftShoulder
				{
					OFFSET 6.197800 13.665199 -4.064700
					CHANNELS 3 Xrotation Yrotation Zrotation
					JOINT LeftArm
					{
						OFFSET 7.778100 -0.187103 -1.709300
						CHANNELS 3 Xrotation Yrotation Zrotation
						JOINT LeftForeArm
						{
							OFFSET 22.049376 0.000000 0.000000
							CHANNELS 3 Xrotation Yrotation Zrotation
							JOINT LeftHand
							{
								OFFSET 23.009392 0.000000 0.000000
								CHANNELS 3 Xrotation Yrotation Zrotation
								JOINT LeftHandThumb1
								{
									OFFSET 3.507191 -2.063065 3.133727
									CHANNELS 3 Xrotation Yrotation Zrotation
									JOINT LeftHandThumb2
									{
										OFFSET 3.101337 -1.790558 1.790558
										CHANNELS 3 Xrotation Yrotation Zrotation
										JOINT LeftHandThumb3
										{
											OFFSET 3.058640 -1.765907 1.765906
											CHANNELS 3 Xrotation Yrotation Zrotation
											End Site
											{
												OFFSET -0.415260 3.926476 -0.049563
											}
										}
									}
								}
								JOINT LeftHandIndex1
								{
									OFFSET 11.334419 -0.901459 3.706815
									CHANNELS 3 Xrotation Yrotation Zrotation
									JOINT LeftHandIndex2
									{
										OFFSET 3.283112 0.000000 0.000000
										CHANNELS 3 Xrotation Yrotation Zrotation
										JOINT LeftHandIndex3
										{
											OFFSET 3.323853 0.000000 0.000000
											CHANNELS 3 Xrotation Yrotation Zrotation
											End Site
											{
												OFFSET -1.135597 3.097809 0.402452
											}
										}
									}
								}
								JOINT LeftHandMiddle1
								{
									OFFSET 11.335861 0.000000 0.000000
									CHANNELS 3 Xrotation Yrotation Zrotation
									JOINT LeftHandMiddle2
									{
										OFFSET 3.410492 0.000000 0.000000
										CHANNELS 3 Xrotation Yrotation Zrotation
										JOINT LeftHandMiddle3
										{
											OFFSET 3.312172 0.000000 0.000000
											CHANNELS 3 Xrotation Yrotation Zrotation
											End Site
											{
												OFFSET -1.150200 3.080154 0.400270
											}
										}
									}
								}
								JOINT LeftHandRing1
								{
									OFFSET 11.514786 -0.013176 -3.003090
									CHANNELS 3 Xrotation Yrotation Zrotation
									JOINT LeftHandRing2
									{
										OFFSET 3.053307 0.000000 0.000000
										CHANNELS 3 Xrotation Yrotation Zrotation
										JOINT LeftHandRing3
										{
											OFFSET 3.295807 0.000000 0.000000
											CHANNELS 3 Xrotation Yrotation Zrotation
											End Site
											{
												OFFSET -1.281006 3.013344 0.375733
											}
										}
									}
								}
								JOINT LeftHandPinky1
								{
									OFFSET 10.518692 -0.960396 -5.730441
									CHANNELS 3 Xrotation Yrotation Zrotation
									JOINT LeftHandPinky2
									{
										OFFSET 2.861649 0.000000 0.000000
										CHANNELS 3 Xrotation Yrotation Zrotation
										JOINT LeftHandPinky3
										{
											OFFSET 2.863380 0.000000 0.000000
											CHANNELS 3 Xrotation Yrotation Zrotation
											End Site
											{
												OFFSET -0.843597 2.711159 0.369971
											}
										}
									}
								}
							}
							JOINT LSleeve
							{
								OFFSET 6.676277 -0.344902 -1.011730
								CHANNELS 3 Xrotation Yrotation Zrotation
								End Site
								{
									OFFSET 0.000000 14.885353 0.000000
								}
							}
						}
					}
				}
				JOINT RightShoulder
				{
					OFFSET -6.197800 13.665199 -4.064700
					CHANNELS 3 Xrotation Yrotation Zrotation
					JOINT RightArm
					{
						OFFSET -7.778100 -0.187103 -1.709300
						CHANNELS 3 Xrotation Yrotation Zrotation
						JOINT RightForeArm
						{
							OFFSET -22.049376 0.000000 0.000000
							CHANNELS 3 Xrotation Yrotation Zrotation
							JOINT RightHand
							{
								OFFSET -23.009392 0.000000 0.000000
								CHANNELS 3 Xrotation Yrotation Zrotation
								JOINT RightHandThumb1
								{
									OFFSET -3.507191 -2.063065 3.133727
									CHANNELS 3 Xrotation Yrotation Zrotation
									JOINT RightHandThumb2
									{
										OFFSET -3.101337 -1.790558 1.790558
										CHANNELS 3 Xrotation Yrotation Zrotation
										JOINT RightHandThumb3
										{
											OFFSET -3.058640 -1.765907 1.765906
											CHANNELS 3 Xrotation Yrotation Zrotation
											End Site
											{
												OFFSET 0.415260 3.926476 -0.049563
											}
										}
									}
								}
								JOINT RightHandIndex1
								{
									OFFSET -11.334419 -0.901459 3.706815
									CHANNELS 3 Xrotation Yrotation Zrotation
									JOINT RightHandIndex2
									{
										OFFSET -3.283112 0.000000 0.000000
										CHANNELS 3 Xrotation Yrotation Zrotation
										JOINT RightHandIndex3
										{
											OFFSET -3.323853 0.000000 0.000000
											CHANNELS 3 Xrotation Yrotation Zrotation
											End Site
											{
												OFFSET 1.135597 3.097809 0.402452
											}
										}
									}
								}
								JOINT RightHandMiddle1
								{
									OFFSET -11.335861 0.000000 0.000000
									CHANNELS 3 Xrotation Yrotation Zrotation
									JOINT RightHandMiddle2
									{
										OFFSET -3.410492 0.000000 0.000000
										CHANNELS 3 Xrotation Yrotation Zrotation
										JOINT RightHandMiddle3
										{
											OFFSET -3.312172 0.000000 0.000000
											CHANNELS 3 Xrotation Yrotation Zrotation
											End Site
											{
												OFFSET 1.150200 3.080154 0.400270
											}
										}
									}
								}
								JOINT RightHandRing1
								{
									OFFSET -11.514786 -0.013176 -3.003090
									CHANNELS 3 Xrotation Yrotation Zrotation
									JOINT RightHandRing2
									{
										OFFSET -3.053307 0.000000 0.000000
										CHANNELS 3 Xrotation Yrotation Zrotation
										JOINT RightHandRing3
										{
											OFFSET -3.295807 0.000000 0.000000
											CHANNELS 3 Xrotation Yrotation Zrotation
											End Site
											{
												OFFSET 1.281006 3.013344 0.375733
											}
										}
									}
								}
								JOINT RightHandPinky1
								{
									OFFSET -10.518692 -0.960396 -5.730441
									CHANNELS 3 Xrotation Yrotation Zrotation
									JOINT RightHandPinky2
									{
										OFFSET -2.861649 0.000000 0.000000
										CHANNELS 3 Xrotation Yrotation Zrotation
										JOINT RightHandPinky3
										{
											OFFSET -2.863380 0.000000 0.000000
											CHANNELS 3 Xrotation Yrotation Zrotation
											End Site
											{
												OFFSET 0.843597 2.711159 0.369971
											}
										}
									}
								}
							}
							JOINT RSleeve
							{
								OFFSET -6.676277 -0.344902 -1.011730
								CHANNELS 3 Xrotation Yrotation Zrotation
								End Site
								{
									OFFSET 0.000000 14.885353 0.000000
								}
							}
						}
					}
				}
				JOINT Backpack
				{
					OFFSET 0.000000 -2.471497 36.677502
					CHANNELS 3 Xrotation Yrotation Zrotation
					End Site
					{
						OFFSET 0.000000 20.427315 0.000000
					}
				}
				JOINT Hood
				{
					OFFSET 0.000000 18.754097 -10.431000
					CHANNELS 3 Xrotation Yrotation Zrotation
					JOINT Hood1
					{
						OFFSET 0.000000 -5.011002 -7.685901
						CHANNELS 3 Xrotation Yrotation Zrotation
						End Site
						{
							OFFSET 0.000000 9.175140 0.000000
						}
					}
				}
				JOINT LHoodieString
				{
					OFFSET 5.250500 16.397697 3.089900
					CHANNELS 3 Xrotation Yrotation Zrotation
					JOINT LHoodieString1
					{
						OFFSET 0.257700 -6.364304 3.694600
						CHANNELS 3 Xrotation Yrotation Zrotation
						JOINT LHoodieString2
						{
							OFFSET 0.000000 -9.643799 2.679100
							CHANNELS 3 Xrotation Yrotation Zrotation
							End Site
							{
								OFFSET 0.000000 10.009018 0.000000
							}
						}
					}
				}
				JOINT RHoodieString
				{
					OFFSET -5.250500 16.397697 3.089900
					CHANNELS 3 Xrotation Yrotation Zrotation
					JOINT RHoodieString1
					{
						OFFSET -0.257700 -6.364304 3.694600
						CHANNELS 3 Xrotation Yrotation Zrotation
						JOINT RHoodieString2
						{
							OFFSET 0.000000 -9.643799 2.679100
							CHANNELS 3 Xrotation Yrotation Zrotation
							End Site
							{
								OFFSET 0.000000 10.009018 0.000000
							}
						}
					}
				}
			}
			JOINT LBackpack_Strap
			{
				OFFSET 15.223200 -7.719803 -6.610900
				CHANNELS 3 Xrotation Yrotation Zrotation
				End Site
				{
					OFFSET 0.000000 16.040596 0.000000
				}
			}
			JOINT RBackpack_Strap
			{
				OFFSET -15.223000 -7.719803 -6.610900
				CHANNELS 3 Xrotation Yrotation Zrotation
				End Site
				{
					OFFSET 0.000000 16.040596 0.000000
				}
			}
		}
	}
	JOINT BoyFacialAnim_Joint
	{
		OFFSET 1.000000 -82.208099 -1.550900
		CHANNELS 3 Xrotation Yrotation Zrotation
		End Site
		{
			OFFSET 0.000000 30.012791 0.000000
		}
	}
}
MOTION
Frames: 4
Frame Time: 0.033333
-0.149519 38.048439 -0.520844 -40.927897 -33.274547 -20.303564 -0.000001 -0.000001 -0.000000 -73.286666 -5.232961 23.890752 123.316743 -9.968232 -0.388981 -14.624927 -5.298569 -1.717042 0.000000 -0.000001 0.000000 0.000000 -0.000001 0.000000 0.000001 0.000001 -0.000000 -48.483917 16.110714 -13.686795 145.486444 -7.419463 -2.294455 -14.462195 -7.009168 33.261481 0.000003 0.000000 -0.000000 0.000003 0.000000 -0.000000 -0.000001 -0.000001 0.000001 58.821616 2.469485 1.333779 10.734623 0.744708 -4.521331 17.520060 -0.085161 -4.562556 -10.626368 7.119774 2.460944 -15.542307 20.386161 10.545775 -0.000000 0.000000 -0.000002 -0.000000 0.000000 -0.000002 -0.000000 0.000000 -0.000002 -37.559046 -4.830596 1.310662 -73.300531 -19.427471 -69.188300 0.000014 -49.482193 0.000014 -122.179080 3.155350 22.364413 1.567993 0.456402 2.719342 19.473177 -1.474915 7.636911 0.000000 0.000001 -0.000002 -1.882824 2.129433 -39.817015 2.947088 5.081738 -60.200529 0.000001 0.000001 -0.000003 0.405922 5.507051 -52.453162 3.387153 5.308604 -65.057470 0.000000 -0.000000 0.000000 -0.074377 5.736777 -61.061420 4.422076 5.674487 -75.840378 0.000000 -0.000001 -0.000002 2.216805 7.072459 -64.435438 4.422623 5.674640 -75.845781 0.000000 0.000000 -0.000004 0.000001 0.000001 0.000000 -42.139822 -9.769735 -7.575439 -51.848895 45.542274 94.589801 0.000061 104.185984 -0.000062 -37.965733 -24.668246 -25.241230 8.377138 -4.904144 11.022024 21.620219 -18.183883 -18.379204 0.000003 0.000001 0.000001 -1.101407 1.407130 15.159526 1.422356 -3.352198 45.974085 -0.000000 -0.000000 0.000005 3.413053 -7.186275 51.650242 6.296820 -4.359579 110.634687 0.000001 0.000002 -0.000005 -3.349048 -2.600438 57.010571 5.440860 -4.590907 99.698161 0.000000 -0.000000 0.000002 -3.996445 -3.303952 64.593864 4.058849 -4.618681 82.610516 0.000000 0.000000 -0.000001 0.000002 0.000001 -0.000001 -0.000001 0.000001 0.000000 -0.000001 0.000001 0.000000 -0.000001 0.000001 0.000000 -0.000001 0.000001 0.000000 -0.000001 0.000001 0.000000 0.000001 0.000001 0.000002 -0.000001 0.000001 0.000000 -0.000001 0.000001 0.000000 0.000001 0.000001 0.000002 -0.000002 -0.000003 0.000001 -0.000002 -0.000003 0.000001 -0.000001 -0.000001 -0.000000 
-0.173000 38.037148 -0.551517 -40.868946 -33.261338 -20.180298 -0.000001 -0.000004 -0.000001 -73.378198 -5.134771 23.941848 123.278945 -10.005590 -0.388560 -14.532406 -5.330448 -1.621805 0.000000 -0.000001 0.000000 0.000000 -0.000001 0.000000 -0.000000 -0.000002 0.000000 -48.547731 16.076242 -13.672880 145.537671 -7.422248 -2.308112 -14.481953 -7.136921 33.267085 0.000000 -0.000000 -0.000001 0.000000 -0.000000 -0.000001 -0.000003 -0.000003 -0.000001 58.756921 2.471723 1.335090 10.700975 0.744696 -4.545158 17.485812 -0.085255 -4.578514 -10.556710 7.121212 2.468252 -15.402824 20.467683 10.392181 0.000001 -0.000000 -0.000002 0.000001 -0.000000 -0.000002 0.000001 -0.000000 -0.000002 -37.559046 -4.830595 1.310662 -71.658158 -18.736081 -68.501668 -0.000005 -49.623462 -0.000017 -122.383043 2.748247 19.712049 1.608749 0.533804 2.678421 19.491963 -1.353546 7.615275 -0.000001 -0.000001 -0.000001 -1.875500 2.125879 -39.729216 2.943735 5.079814 -60.162553 0.000003 -0.000001 -0.000002 0.334060 5.450585 -52.428693 3.393471 5.311547 -65.125867 0.000002 0.000001 0.000000 -0.075190 5.737039 -61.071105 4.418678 5.673616 -75.806002 0.000001 -0.000001 -0.000002 2.294208 7.111470 -64.532665 4.425955 5.675470 -75.879372 0.000000 0.000004 0.000002 -0.000002 -0.000001 0.000001 -42.080280 -9.727250 -7.510639 -51.124171 46.080886 94.783136 -0.000074 101.865626 0.000065 -34.944983 -22.271461 -21.606626 8.296506 -4.712191 11.058122 21.548207 -18.185700 -18.153325 -0.000004 -0.000000 0.000002 -1.081787 1.420511 14.905643 1.415242 -3.345303 45.852009 0.000000 0.000000 0.000003 3.375889 -7.160923 51.562198 6.294292 -4.360524 110.601492 0.000000 0.000001 -0.000002 -3.329808 -2.622128 57.076667 5.442112 -4.590687 99.713891 -0.000001 0.000000 -0.000003 -3.994739 -3.318814 64.691153 4.061099 -4.618971 82.638479 0.000002 0.000001 0.000002 -0.000001 -0.000003 0.000002 -0.000003 0.000000 -0.000000 -0.000003 0.000000 -0.000000 -0.000003 0.000000 -0.000000 -0.000003 0.000000 -0.000000 -0.000003 0.000000 -0.000000 -0.000000 -0.000002 0.000001 -0.000003 0.000000 -0.000000 -0.000003 0.000000 -0.000000 -0.000000 -0.000002 0.000001 0.000001 -0.000001 0.000001 0.000001 -0.000001 0.000001 -0.000001 -0.000004 -0.000001 
-0.209059 38.028679 -0.591564 -40.829993 -33.267550 -20.078543 0.000001 -0.000003 -0.000001 -73.433160 -5.091927 23.963589 123.230683 -10.048150 -0.393739 -14.437031 -5.356038 -1.550599 -0.000000 0.000001 -0.000000 -0.000000 0.000001 -0.000000 -0.000000 -0.000000 0.000000 -48.615350 16.019611 -13.525755 145.589225 -7.494354 -2.342371 -14.473089 -7.306736 33.332662 0.000003 -0.000000 0.000000 0.000003 -0.000000 0.000000 0.000002 -0.000005 -0.000000 58.680095 2.469076 1.331552 10.675495 0.744764 -4.531042 17.459651 -0.081622 -4.565645 -10.536377 7.161496 2.356302 -15.310636 20.439732 10.280056 -0.000001 -0.000001 -0.000000 -0.000001 -0.000001 -0.000000 -0.000001 -0.000001 -0.000000 -37.559050 -4.830595 1.310658 -69.949887 -17.912369 -67.661903 -0.000004 -49.536811 -0.000003 -122.974578 2.814874 17.032692 1.312377 -0.011513 2.823320 19.545797 -1.047198 7.545404 0.000001 -0.000002 -0.000000 -1.876002 1.991976 -38.800836 2.935252 5.074961 -60.066623 -0.000004 -0.000001 -0.000004 -0.172435 5.017682 -51.803945 3.415991 5.321883 -65.368913 0.000004 0.000000 0.000000 -0.539190 5.447377 -60.662195 4.403329 5.669745 -75.650663 -0.000002 -0.000001 -0.000002 1.921421 6.930074 -64.364984 4.433506 5.677342 -75.955795 0.000000 -0.000003 0.000004 -0.000000 -0.000001 -0.000002 -41.925340 -9.554168 -7.541903 -51.059386 46.783200 95.919420 0.000898 99.839641 -0.000869 -32.217593 -20.068646 -20.010176 7.937278 -3.848536 11.611132 21.181721 -18.231546 -17.209307 0.000001 -0.000002 0.000001 -0.985576 1.216436 14.402697 1.393229 -3.323830 45.473753 0.000001 -0.000000 0.000005 3.320815 -7.140176 51.039063 6.284091 -4.364359 110.467341 0.000001 0.000001 -0.000000 -3.276614 -2.665042 57.136500 5.435652 -4.591771 99.633110 0.000000 0.000000 0.000006 -4.020038 -3.353035 65.010895 4.115147 -4.625597 83.308890 -0.000000 -0.000001 -0.000002 -0.000001 -0.000003 0.000000 -0.000002 0.000001 -0.000001 -0.000002 0.000001 -0.000001 -0.000002 0.000001 -0.000001 -0.000002 0.000001 -0.000001 -0.000002 0.000001 0.000000 -0.000001 0.000001 -0.000000 -0.000002 0.000001 -0.000001 -0.000002 0.000001 0.000000 -0.000001 0.000001 -0.000000 -0.000000 0.000000 0.000000 -0.000000 0.000000 0.000000 0.000001 -0.000003 -0.000001 
-0.255487 38.021393 -0.646519 -40.795047 -33.278454 -19.985863 -0.000000 0.000001 0.000000 -73.477741 -5.092224 23.966599 123.165700 -10.096594 -0.405087 -14.321810 -5.382307 -1.483088 0.000000 0.000002 0.000000 0.000000 0.000002 0.000000 0.000001 -0.000002 -0.000000 -48.694205 15.973442 -13.245083 145.644372 -7.617716 -2.386495 -14.407671 -7.521375 33.464010 0.000002 0.000001 -0.000001 0.000002 0.000001 -0.000001 -0.000001 -0.000000 -0.000001 58.621683 2.462901 1.303988 10.643455 0.744952 -4.474713 17.425558 -0.069165 -4.510861 -10.709479 7.239066 2.088330 -15.054772 20.212623 10.114518 0.000001 0.000000 -0.000001 0.000001 0.000000 -0.000001 0.000001 0.000000 -0.000001 -37.559050 -4.830594 1.310662 -68.033411 -16.989843 -66.814406 0.000002 -49.433907 0.000004 -123.414674 3.082742 14.505870 0.527044 -1.521086 3.290602 19.711757 -0.212449 7.317529 0.000000 -0.000002 0.000001 -1.920121 1.684185 -37.124257 2.922722 5.067775 -59.925095 -0.000003 0.000000 -0.000003 -1.104007 4.167052 -50.601405 3.447320 5.336084 -65.706140 0.000004 0.000001 -0.000003 -1.606357 4.751982 -59.774599 4.387594 5.665700 -75.491062 0.000002 -0.000002 -0.000001 0.831985 6.383125 -63.853854 4.442626 5.679601 -76.047920 -0.000000 0.000000 -0.000000 -0.000001 -0.000000 -0.000002 -41.715835 -9.370786 -7.802901 -50.790383 48.602089 98.067549 0.000423 98.300055 -0.000417 -30.560841 -15.856305 -22.593764 6.610381 -1.095165 12.603384 20.305751 -18.715342 -16.748128 0.000000 0.000001 -0.000000 -0.846039 0.736476 14.146382 1.357394 -3.288279 44.852479 0.000001 0.000001 -0.000001 3.115038 -7.071697 48.719087 6.262547 -4.372288 110.184639 0.000001 -0.000000 0.000005 -3.101607 -2.661643 56.247376 5.410362 -4.596004 99.317637 0.000000 -0.000001 -0.000001 -3.966913 -3.320145 64.608214 4.270776 -4.641163 85.235351 -0.000000 0.000000 0.000002 0.000003 -0.000001 -0.000001 -0.000003 0.000001 -0.000001 -0.000003 0.000001 -0.000001 -0.000003 0.000001 -0.000001 -0.000003 0.000001 -0.000001 -0.000003 0.000001 -0.000001 -0.000002 0.000001 -0.000001 -0.000003 0.000001 -0.000001 -0.000003 0.000001 -0.000001 -0.000002 0.000001 -0.000001 -0.000000 -0.000001 0.000002 -0.000000 -0.000001 0.000002 -0.000000 0.000001 0.000000 
